<svg width="622" height="101" viewBox="0 0 622 101" fill="none" xmlns="http://www.w3.org/2000/svg">
<path d="M151.75 80L147.25 25.46H180.91L191.08 52.19L201.25 25.46H231.85L227.35 80H208.9L205.66 47.51L193.24 80H178.66L166.24 47.51L163.54 80H151.75ZM269.311 80.9C262.531 80.9 256.831 78.95 252.211 75.05C247.651 71.09 245.371 65.3 245.371 57.68C245.371 52.88 246.541 48.8 248.881 45.44C253.141 39.2 259.741 36.08 268.681 36.08C275.521 36.08 280.741 37.46 284.341 40.22C287.941 42.92 289.741 46.67 289.741 51.47C289.741 55.19 288.241 58.22 285.241 60.56C282.301 62.84 277.981 63.98 272.281 63.98C269.941 63.98 267.841 63.8 265.981 63.44L264.991 63.26C265.291 65.42 266.221 67.04 267.781 68.12C269.401 69.14 271.321 69.65 273.541 69.65C277.201 69.65 280.321 68.54 282.901 66.32L288.481 73.07C287.521 74.21 286.381 75.29 285.061 76.31C283.741 77.27 281.641 78.29 278.761 79.37C275.881 80.39 272.731 80.9 269.311 80.9ZM276.601 50.66C276.601 49.46 276.121 48.47 275.161 47.69C274.261 46.91 273.001 46.52 271.381 46.52C269.761 46.52 268.231 47.24 266.791 48.68C265.411 50.12 264.721 51.83 264.721 53.81C266.041 54.41 267.751 54.71 269.851 54.71C272.011 54.71 273.661 54.35 274.801 53.63C276.001 52.85 276.601 51.86 276.601 50.66ZM368.578 36.08C373.438 36.08 377.038 38 379.378 41.84C381.718 45.68 382.888 50.3 382.888 55.7C382.888 61.04 382.198 69.14 380.818 80H365.068L363.088 59.12C362.728 55.52 362.248 53.12 361.648 51.92C361.048 50.72 360.028 50.12 358.588 50.12C355.168 50.12 353.248 53.15 352.828 59.21L351.298 80H335.278L333.298 59.12C332.938 55.52 332.458 53.12 331.858 51.92C331.258 50.72 330.238 50.12 328.798 50.12C325.258 50.12 323.338 53.15 323.038 59.21L322.138 80H305.578L303.688 37.34H324.028L323.668 45.89C323.788 45.65 323.938 45.32 324.118 44.9C324.358 44.42 324.898 43.61 325.738 42.47C326.638 41.33 327.628 40.34 328.708 39.5C329.788 38.66 331.258 37.88 333.118 37.16C335.038 36.44 337.078 36.08 339.238 36.08C342.718 36.08 345.538 37.19 347.698 39.41C349.918 41.63 351.358 44.09 352.018 46.79C352.918 45.29 353.698 44.09 354.358 43.19C355.018 42.29 356.008 41.21 357.328 39.95C360.028 37.37 363.778 36.08 368.578 36.08ZM403.357 75.59C399.037 71.99 396.877 66.29 396.877 58.49C396.877 50.69 399.037 45.02 403.357 41.48C407.737 37.88 413.557 36.08 420.817 36.08C428.077 36.08 433.867 37.88 438.187 41.48C442.567 45.02 444.757 50.69 444.757 58.49C444.757 66.29 442.567 71.99 438.187 75.59C433.867 79.13 428.077 80.9 420.817 80.9C413.557 80.9 407.737 79.13 403.357 75.59ZM417.037 48.32C416.317 50.36 415.957 53.75 415.957 58.49C415.957 63.23 416.317 66.65 417.037 68.75C417.757 70.79 419.017 71.81 420.817 71.81C422.617 71.81 423.877 70.79 424.597 68.75C425.317 66.65 425.677 63.23 425.677 58.49C425.677 53.75 425.317 50.36 424.597 48.32C423.877 46.22 422.617 45.17 420.817 45.17C419.017 45.17 417.757 46.22 417.037 48.32ZM478.69 43.19C481.87 38.45 485.8 36.08 490.48 36.08C492.7 36.08 494.74 36.62 496.6 37.7L494.44 52.46C492.04 50.78 489.34 49.94 486.34 49.94C483.46 49.94 481.51 51.14 480.49 53.54C479.89 55.04 479.5 56.48 479.32 57.86L477.61 80H461.41L458.71 37.34H476.44L478.69 43.19ZM509.125 69.83C510.265 68.57 511.975 67.94 514.255 67.94C516.535 67.94 518.245 68.57 519.385 69.83C520.525 71.03 521.095 72.56 521.095 74.42C521.095 76.28 520.525 77.84 519.385 79.1C518.245 80.3 516.535 80.9 514.255 80.9C511.975 80.9 510.265 80.3 509.125 79.1C507.985 77.84 507.415 76.28 507.415 74.42C507.415 72.56 507.985 71.03 509.125 69.83ZM556.05 38.6L557.58 38.06L554.52 80H537.51L534.63 38.06C538.05 39.44 541.68 40.13 545.52 40.13C549.42 40.13 552.93 39.62 556.05 38.6ZM546.06 36.17C543.06 36.17 540.54 35.27 538.5 33.47C536.46 31.67 535.44 29.33 535.44 26.45C535.44 23.51 536.43 21.17 538.41 19.43C540.45 17.63 542.97 16.73 545.97 16.73C549.03 16.73 551.58 17.63 553.62 19.43C555.66 21.23 556.68 23.57 556.68 26.45C556.68 29.33 555.66 31.67 553.62 33.47C551.58 35.27 549.06 36.17 546.06 36.17ZM578.048 75.59C573.728 71.99 571.568 66.29 571.568 58.49C571.568 50.69 573.728 45.02 578.048 41.48C582.428 37.88 588.248 36.08 595.508 36.08C602.768 36.08 608.558 37.88 612.878 41.48C617.258 45.02 619.448 50.69 619.448 58.49C619.448 66.29 617.258 71.99 612.878 75.59C608.558 79.13 602.768 80.9 595.508 80.9C588.248 80.9 582.428 79.13 578.048 75.59ZM591.728 48.32C591.008 50.36 590.648 53.75 590.648 58.49C590.648 63.23 591.008 66.65 591.728 68.75C592.448 70.79 593.708 71.81 595.508 71.81C597.308 71.81 598.568 70.79 599.288 68.75C600.008 66.65 600.368 63.23 600.368 58.49C600.368 53.75 600.008 50.36 599.288 48.32C598.568 46.22 597.308 45.17 595.508 45.17C593.708 45.17 592.448 46.22 591.728 48.32Z" fill="#464646"/>
<rect width="39.1292" height="54.6258" rx="12" transform="matrix(0.897374 0.441271 -0.412905 0.910774 22.5552 0)" fill="#464646"/>
<path d="M40.0464 56.1941C14.4487 42.7922 26.9123 18.6401 51.6991 30.3307" stroke="white" stroke-width="4"/>
<rect width="39.1292" height="54.6258" rx="12" transform="matrix(-0.897374 -0.441271 0.412905 -0.910774 71.4449 100.213)" fill="#464646"/>
<path d="M53.9535 44.0187C79.5513 57.4207 67.0876 81.5728 42.3009 69.8822" stroke="white" stroke-width="4"/>
</svg>